<?xml version="1.0" standalone="no"?>
<!DOCTYPE svg PUBLIC "-//W3C//DTD SVG 20010904//EN"
 "http://www.w3.org/TR/2001/REC-SVG-20010904/DTD/svg10.dtd">
<svg version="1.0" xmlns="http://www.w3.org/2000/svg"
 width="933.000000pt" height="1280.000000pt" viewBox="0 0 933.000000 1280.000000"
 preserveAspectRatio="xMidYMid meet">
<metadata>
Created by potrace 1.15, written by Peter Selinger 2001-2017
</metadata>
<g transform="translate(0.000000,1280.000000) scale(0.100000,-0.100000)"
fill="#000000" stroke="none">
<path d="M8204 12790 c-140 -25 -319 -101 -444 -187 -138 -96 -187 -144 -362
-353 -116 -139 -189 -218 -206 -224 -77 -24 -92 -40 -385 -420 -414 -537 -634
-829 -673 -894 -20 -33 -34 -69 -34 -89 0 -28 -423 -633 -2681 -3835 -1475
-2092 -2701 -3822 -2725 -3845 -23 -23 -47 -57 -53 -75 -9 -29 -168 -702 -546
-2316 -68 -290 -95 -423 -91 -446 8 -42 59 -94 101 -102 19 -3 49 -1 67 5 38
13 2672 1878 2705 1916 13 14 26 38 29 53 4 15 16 43 27 62 42 72 1812 2694
4056 6009 952 1406 1035 1526 1068 1537 20 7 44 21 54 31 22 23 746 1155 771
1205 10 20 18 55 18 76 0 32 15 64 81 168 44 71 99 154 120 184 86 119 173
344 210 540 19 101 17 332 -4 409 -43 157 -81 208 -225 303 -106 69 -484 255
-557 274 -73 19 -251 26 -321 14z m-1409 -2284 c48 -13 232 -68 345 -103 231
-72 507 -224 600 -331 45 -52 121 -196 123 -233 1 -16 -385 -594 -1224 -1834
-1453 -2146 -2846 -4207 -3406 -5040 -222 -330 -407 -601 -411 -602 -4 -2 -25
36 -46 83 -75 163 -214 349 -340 454 -302 251 -695 330 -1161 235 -65 -13
-120 -23 -121 -22 -1 1 179 259 400 572 490 695 2581 3660 3854 5465 514 729
943 1334 954 1345 20 20 20 20 13 -4 -6 -18 -4 -22 6 -16 8 5 11 5 7 1 -3 -4
-8 -6 -11 -4 -6 5 -37 -23 -37 -34 0 -6 7 -4 17 3 15 13 15 12 2 -8 -8 -14
-16 -18 -20 -12 -5 8 -9 8 -13 0 -4 -6 -4 -16 0 -23 4 -6 3 -8 -4 -4 -6 3 -20
-7 -31 -23 -24 -33 -27 -45 -8 -35 6 4 9 4 5 0 -3 -4 -8 -6 -11 -4 -6 5 -37
-23 -37 -34 0 -6 8 -4 17 3 12 9 10 3 -5 -18 -13 -18 -28 -32 -34 -30 -6 1
-13 -4 -16 -12 -3 -9 0 -11 9 -6 8 5 12 6 9 2 -3 -3 -9 -6 -15 -7 -15 -2 -35
-21 -35 -32 0 -5 6 -6 13 -2 7 5 5 -2 -4 -16 -9 -14 -20 -24 -25 -23 -12 2
-34 -17 -34 -29 0 -6 8 -4 18 3 15 11 15 11 4 -1 -7 -8 -18 -15 -24 -15 -6 0
-13 -6 -16 -14 -3 -9 0 -11 9 -6 8 5 11 4 6 -1 -5 -5 -10 -7 -11 -4 -4 8 -36
-21 -36 -32 0 -6 8 -4 17 3 11 9 9 2 -6 -19 -13 -18 -26 -31 -29 -28 -7 7 -32
-13 -32 -26 0 -6 8 -4 17 3 11 9 9 2 -6 -19 -13 -18 -26 -31 -29 -28 -7 7 -32
-13 -32 -26 0 -6 8 -4 17 3 12 9 10 3 -5 -18 -13 -18 -28 -32 -34 -30 -6 1
-13 -4 -16 -12 -3 -9 0 -11 7 -6 9 5 9 1 0 -14 -8 -12 -16 -16 -20 -10 -5 8
-9 8 -13 0 -4 -6 -4 -16 -1 -21 4 -6 1 -9 -6 -8 -6 2 -14 -3 -17 -11 -3 -9 0
-11 9 -6 8 5 11 5 7 1 -3 -4 -10 -8 -15 -8 -12 0 -33 -19 -33 -30 0 -6 8 -4
18 3 15 13 16 12 4 -3 -8 -10 -19 -16 -24 -15 -6 1 -13 -4 -16 -12 -3 -9 0
-11 8 -6 9 5 11 4 6 -4 -4 -6 -11 -9 -16 -6 -11 7 -33 -22 -25 -35 4 -6 1 -9
-6 -8 -6 2 -14 -3 -17 -11 -3 -9 0 -11 9 -6 8 5 11 5 7 1 -3 -4 -10 -8 -15 -8
-12 0 -33 -19 -33 -30 0 -6 8 -4 18 3 15 13 16 12 4 -3 -8 -10 -19 -16 -24
-15 -6 1 -13 -4 -16 -12 -3 -9 0 -11 9 -6 8 5 11 5 7 1 -3 -4 -8 -6 -11 -4 -6
5 -37 -23 -37 -34 0 -6 8 -4 17 3 12 9 10 3 -5 -18 -13 -18 -28 -32 -34 -30
-6 1 -13 -4 -16 -12 -3 -9 0 -11 9 -6 12 7 12 5 1 -6 -7 -8 -18 -14 -24 -14
-6 0 -13 -6 -16 -14 -3 -9 0 -11 9 -6 8 5 11 4 6 -1 -5 -5 -14 -9 -20 -9 -5 0
-12 -6 -15 -14 -3 -9 0 -11 9 -6 8 5 11 4 6 -1 -5 -5 -12 -9 -15 -9 -13 0 -32
-16 -32 -27 0 -6 7 -5 18 3 15 11 15 11 4 -1 -7 -8 -18 -15 -24 -15 -6 0 -13
-6 -16 -14 -3 -9 0 -11 9 -6 8 5 11 4 6 -1 -5 -5 -14 -9 -20 -9 -5 0 -12 -6
-15 -14 -3 -9 0 -11 9 -6 8 5 12 6 9 2 -3 -3 -8 -5 -11 -4 -9 3 -39 -24 -39
-35 0 -6 8 -4 18 3 15 13 16 12 4 -3 -8 -10 -19 -16 -24 -15 -6 1 -13 -4 -16
-12 -3 -9 0 -11 9 -6 8 5 11 4 6 -1 -5 -5 -12 -9 -15 -9 -13 0 -32 -16 -32
-27 0 -6 7 -5 18 3 15 11 15 11 4 -1 -7 -8 -18 -15 -24 -15 -6 0 -13 -6 -16
-14 -3 -9 0 -11 9 -6 8 5 11 4 6 -1 -5 -5 -14 -9 -20 -9 -5 0 -12 -6 -15 -14
-3 -9 0 -11 9 -6 12 7 12 5 1 -6 -7 -8 -18 -14 -24 -14 -6 0 -13 -6 -16 -14
-3 -10 0 -11 9 -5 11 6 11 3 -1 -15 -8 -12 -19 -22 -25 -23 -14 0 -35 -18 -35
-30 0 -6 8 -4 18 3 15 11 15 11 4 -1 -7 -8 -18 -15 -24 -15 -6 0 -13 -6 -16
-14 -3 -9 0 -11 9 -6 8 5 11 4 6 -1 -5 -5 -14 -9 -19 -9 -6 0 -13 -6 -16 -14
-3 -9 0 -11 9 -6 8 5 11 5 7 1 -3 -4 -10 -8 -15 -8 -12 0 -33 -19 -33 -30 0
-6 8 -4 18 3 15 11 15 11 4 -1 -7 -8 -18 -15 -24 -15 -6 0 -13 -6 -16 -14 -3
-9 0 -11 9 -6 8 5 11 5 7 1 -3 -4 -10 -8 -15 -8 -12 0 -33 -19 -33 -30 0 -6 8
-4 18 3 15 11 15 11 4 -1 -7 -8 -18 -15 -24 -15 -6 0 -13 -6 -16 -14 -3 -9 0
-11 9 -6 8 5 11 4 6 -1 -5 -5 -14 -9 -19 -9 -6 0 -13 -6 -16 -14 -3 -9 0 -11
9 -6 8 5 12 6 9 2 -3 -3 -8 -5 -11 -4 -9 3 -39 -24 -39 -35 0 -5 6 -6 13 -2 7
5 5 -2 -4 -16 -9 -14 -22 -25 -29 -25 -8 0 -15 -6 -18 -14 -3 -9 0 -11 9 -6
12 7 12 5 1 -6 -7 -8 -18 -14 -25 -14 -7 0 -11 -8 -11 -17 1 -10 -3 -16 -8
-15 -6 1 -13 -4 -16 -12 -3 -9 0 -11 9 -6 8 5 11 4 6 -1 -5 -5 -12 -8 -15 -7
-10 2 -32 -18 -32 -29 0 -6 8 -4 18 3 15 11 15 11 4 -1 -7 -8 -18 -15 -24 -15
-6 0 -13 -6 -16 -14 -3 -9 0 -11 9 -6 8 5 11 4 6 -1 -5 -5 -14 -9 -19 -9 -6 0
-13 -6 -16 -14 -3 -9 0 -11 9 -6 12 7 12 5 1 -6 -7 -8 -18 -14 -24 -14 -6 0
-13 -6 -16 -14 -3 -9 0 -11 9 -6 8 5 11 4 6 -1 -5 -5 -14 -9 -19 -9 -6 0 -13
-6 -16 -14 -3 -9 0 -11 9 -6 8 5 11 4 6 -1 -5 -5 -12 -8 -15 -7 -10 2 -32 -18
-32 -29 0 -5 6 -6 13 -2 7 5 5 -2 -4 -16 -9 -14 -22 -25 -29 -25 -8 0 -15 -6
-18 -14 -3 -9 0 -11 9 -6 12 7 12 5 1 -6 -7 -8 -18 -14 -24 -14 -6 0 -13 -6
-16 -14 -3 -9 0 -11 9 -6 8 5 11 4 6 -1 -5 -5 -14 -9 -20 -9 -5 0 -12 -6 -15
-14 -3 -9 0 -11 9 -6 8 5 11 4 6 -1 -5 -5 -12 -9 -15 -9 -13 0 -32 -16 -32
-27 0 -6 7 -5 18 3 15 11 15 11 4 -1 -7 -8 -18 -15 -24 -15 -6 0 -13 -6 -16
-14 -3 -9 0 -11 9 -6 8 5 11 4 6 -1 -5 -5 -14 -9 -20 -9 -5 0 -12 -6 -15 -14
-3 -9 0 -11 9 -6 7 5 3 -6 -10 -23 -12 -17 -27 -31 -33 -29 -6 1 -13 -4 -16
-12 -3 -9 0 -11 9 -6 8 5 11 4 6 -1 -5 -5 -12 -9 -15 -9 -13 0 -32 -16 -32
-27 0 -6 7 -5 17 3 12 9 10 3 -5 -18 -13 -18 -28 -32 -34 -30 -6 1 -13 -4 -16
-12 -3 -9 0 -11 9 -6 12 7 12 5 1 -6 -7 -8 -18 -14 -24 -14 -6 0 -13 -6 -16
-14 -3 -9 0 -11 9 -6 8 5 11 4 6 -1 -5 -5 -14 -9 -20 -9 -5 0 -12 -6 -15 -14
-3 -9 0 -11 9 -6 8 5 11 4 6 -1 -5 -5 -12 -9 -15 -9 -13 0 -32 -16 -32 -27 0
-6 7 -5 18 3 15 13 16 12 4 -3 -8 -10 -19 -16 -24 -15 -6 1 -13 -4 -16 -12 -3
-10 0 -11 9 -5 10 6 9 1 -2 -16 -9 -14 -20 -25 -25 -25 -15 0 -34 -16 -34 -27
0 -6 7 -5 18 3 15 13 16 12 4 -3 -8 -10 -19 -16 -24 -15 -6 1 -13 -4 -16 -12
-3 -9 0 -11 9 -6 8 5 11 4 6 -1 -5 -5 -14 -9 -20 -9 -5 0 -12 -6 -15 -14 -3
-9 0 -11 9 -6 8 5 11 4 6 -1 -5 -5 -12 -9 -15 -9 -13 0 -32 -16 -32 -27 0 -6
7 -5 18 3 15 13 16 12 4 -3 -8 -10 -19 -16 -24 -15 -6 1 -13 -4 -16 -12 -3 -9
0 -11 9 -6 8 5 11 4 6 -1 -5 -5 -14 -9 -20 -9 -5 0 -12 -6 -15 -14 -3 -9 0
-11 9 -6 7 5 3 -6 -10 -23 -12 -17 -27 -31 -33 -29 -6 1 -13 -4 -16 -12 -3 -9
0 -11 9 -6 8 5 11 4 6 -1 -5 -5 -12 -9 -15 -9 -13 0 -32 -16 -32 -27 0 -6 7
-5 17 3 12 9 10 3 -5 -18 -13 -18 -28 -32 -34 -30 -6 1 -13 -4 -16 -12 -3 -9
0 -11 9 -6 8 5 12 6 9 2 -3 -3 -8 -5 -11 -4 -9 3 -39 -24 -39 -35 0 -6 8 -4
18 3 15 13 16 12 4 -3 -8 -10 -19 -16 -24 -15 -6 1 -13 -4 -16 -12 -3 -9 0
-11 9 -6 8 5 11 4 6 -1 -5 -5 -14 -9 -19 -9 -6 0 -13 -6 -16 -14 -3 -9 0 -11
9 -6 8 5 12 6 9 2 -3 -3 -8 -5 -11 -4 -9 3 -39 -24 -39 -35 0 -6 8 -4 17 3 12
9 10 3 -5 -18 -13 -18 -28 -32 -34 -30 -6 1 -13 -4 -16 -12 -3 -9 0 -11 9 -6
8 5 12 6 9 2 -3 -3 -8 -5 -11 -4 -9 3 -39 -24 -39 -35 0 -6 8 -4 18 3 15 13
16 12 4 -3 -8 -10 -19 -16 -24 -15 -6 1 -13 -4 -16 -12 -3 -9 0 -11 8 -6 9 5
11 4 6 -4 -4 -6 -11 -9 -16 -6 -5 3 -18 -8 -29 -24 -24 -33 -27 -46 -8 -35 7
5 5 -2 -4 -16 -9 -14 -22 -25 -28 -25 -13 0 -50 -44 -51 -59 0 -5 8 -2 18 5
15 13 16 12 4 -3 -8 -10 -19 -16 -24 -15 -6 1 -13 -4 -16 -12 -3 -9 0 -11 9
-6 8 5 11 4 6 -1 -5 -5 -12 -9 -15 -9 -13 0 -32 -16 -32 -27 0 -6 7 -5 18 3
15 13 16 12 4 -3 -8 -10 -19 -16 -24 -15 -6 1 -13 -4 -16 -12 -3 -10 0 -11 9
-5 10 6 9 1 -2 -16 -9 -14 -22 -25 -28 -25 -12 0 -50 -44 -51 -58 0 -5 6 -5
13 -1 7 4 9 3 4 -2 -5 -5 -14 -9 -19 -9 -6 0 -13 -6 -16 -14 -3 -9 0 -11 9 -6
8 5 11 4 6 -1 -5 -5 -12 -8 -15 -7 -10 2 -32 -18 -32 -29 0 -6 8 -4 18 3 15
13 16 12 4 -3 -8 -10 -19 -16 -24 -15 -6 1 -13 -4 -16 -12 -3 -10 0 -11 9 -5
10 6 9 1 -3 -16 -9 -14 -21 -24 -27 -23 -15 4 -53 -55 -45 -68 4 -7 3 -9 -4
-5 -6 3 -20 -7 -31 -23 -26 -36 -27 -48 -3 -30 15 13 16 12 4 -3 -8 -10 -19
-16 -24 -15 -6 1 -13 -4 -16 -12 -3 -8 0 -11 7 -7 7 5 9 1 4 -9 -4 -12 -8 -13
-13 -5 -10 16 -74 -76 -64 -93 4 -6 4 -9 -1 -5 -9 9 -35 -9 -35 -24 0 -6 8 -4
17 3 12 9 10 3 -5 -18 -13 -18 -28 -32 -34 -30 -6 1 -13 -4 -16 -12 -3 -9 0
-11 8 -6 9 5 11 4 6 -4 -4 -6 -11 -9 -16 -6 -12 7 -73 -82 -65 -95 4 -6 1 -9
-6 -8 -6 2 -14 -3 -17 -11 -3 -9 0 -11 9 -6 8 5 11 4 6 -1 -5 -5 -12 -9 -15
-9 -13 0 -32 -16 -32 -26 0 -6 6 -7 13 -3 7 4 9 3 4 -2 -5 -5 -14 -9 -20 -9
-5 0 -12 -6 -15 -14 -3 -8 0 -11 7 -7 7 5 9 1 4 -9 -4 -12 -8 -13 -13 -5 -5 9
-9 9 -14 1 -4 -6 -4 -16 0 -23 4 -6 3 -8 -4 -4 -6 3 -20 -7 -31 -23 -24 -33
-27 -45 -8 -35 7 4 9 3 4 -2 -5 -5 -14 -9 -20 -9 -7 0 -11 -8 -11 -18 1 -9 -2
-15 -6 -12 -5 3 -18 -8 -29 -24 -26 -36 -27 -48 -3 -30 15 13 16 12 4 -3 -8
-10 -19 -16 -24 -15 -6 1 -13 -4 -16 -12 -3 -9 0 -11 9 -6 8 5 11 4 6 -1 -5
-5 -14 -9 -20 -9 -7 0 -11 -9 -11 -18 1 -10 -1 -16 -4 -13 -7 7 -32 -13 -32
-26 0 -5 6 -6 13 -2 7 4 9 3 4 -2 -5 -5 -13 -9 -17 -9 -9 0 -90 -108 -90 -120
0 -3 6 -3 13 1 7 4 9 3 4 -2 -5 -5 -14 -9 -20 -9 -7 0 -11 -12 -9 -25 1 -18
-1 -21 -7 -11 -11 17 -26 -3 -15 -21 4 -6 3 -8 -4 -4 -13 8 -56 -50 -47 -64 4
-6 1 -9 -7 -8 -7 2 -12 -5 -12 -15 1 -10 -1 -16 -4 -13 -7 7 -32 -13 -32 -26
0 -5 6 -6 13 -2 7 4 9 3 4 -2 -5 -5 -14 -9 -20 -9 -5 0 -12 -6 -15 -14 -3 -9
0 -11 9 -6 8 5 11 4 6 -1 -5 -5 -14 -9 -20 -9 -7 0 -11 -8 -11 -18 1 -9 -2
-15 -6 -12 -5 3 -18 -8 -29 -24 -24 -33 -27 -45 -8 -35 7 4 9 3 4 -2 -5 -5
-14 -9 -20 -9 -7 0 -11 -8 -11 -17 1 -10 -3 -16 -10 -15 -6 1 -10 -6 -10 -15
1 -10 -2 -16 -6 -13 -8 5 -50 -46 -50 -60 0 -4 8 -1 18 6 15 11 15 11 4 -1 -7
-8 -18 -15 -25 -15 -7 0 -11 -9 -11 -18 1 -10 -1 -16 -4 -13 -7 7 -32 -13 -32
-26 0 -5 5 -6 12 -2 7 4 8 3 4 -5 -4 -6 -11 -9 -16 -6 -11 7 -42 -43 -34 -57
4 -6 3 -8 -4 -4 -6 3 -20 -7 -31 -23 -26 -36 -27 -48 -3 -30 15 11 15 11 4 -1
-7 -8 -18 -15 -25 -15 -7 0 -11 -8 -11 -17 1 -10 -3 -16 -10 -15 -6 1 -10 -6
-10 -15 1 -10 -2 -16 -6 -13 -12 7 -53 -53 -45 -65 4 -6 1 -9 -7 -8 -7 2 -12
-5 -12 -14 1 -10 -2 -15 -7 -13 -7 5 -69 -76 -69 -91 0 -3 8 0 18 7 15 11 15
11 4 -1 -7 -8 -18 -15 -25 -15 -7 0 -11 -11 -9 -25 1 -18 -1 -21 -7 -11 -11
17 -26 -3 -15 -21 4 -6 3 -8 -4 -4 -13 8 -56 -50 -47 -64 4 -6 1 -9 -7 -8 -7
2 -12 -5 -12 -14 1 -10 -3 -16 -10 -15 -6 1 -10 -6 -10 -15 1 -10 -2 -16 -6
-13 -8 5 -50 -46 -50 -60 0 -4 8 -1 18 6 15 11 15 11 4 -1 -7 -8 -18 -15 -25
-15 -7 0 -11 -11 -9 -25 1 -18 -1 -21 -7 -11 -11 17 -26 -3 -15 -21 4 -6 3 -8
-4 -4 -6 3 -20 -7 -31 -23 -26 -36 -27 -48 -3 -30 15 11 15 11 4 -1 -7 -8 -18
-15 -24 -15 -6 0 -13 -6 -16 -14 -3 -9 0 -11 9 -6 8 5 11 4 6 -1 -5 -5 -14 -9
-20 -9 -7 0 -11 -8 -11 -17 1 -10 -3 -16 -10 -15 -6 1 -10 -6 -10 -15 1 -10
-2 -16 -6 -13 -5 3 -18 -8 -29 -24 -24 -33 -27 -45 -8 -35 7 4 9 3 4 -2 -5 -5
-14 -9 -20 -9 -7 0 -11 -8 -11 -18 1 -9 -2 -15 -6 -12 -11 7 -92 -113 -85
-125 4 -6 1 -9 -7 -8 -7 2 -12 -5 -12 -14 1 -10 -2 -15 -7 -13 -4 3 -31 -28
-59 -69 -49 -74 -68 -115 -30 -66 11 14 20 20 20 14 0 -6 -9 -19 -20 -29 -11
-10 -20 -15 -20 -10 0 4 -7 2 -15 -5 -8 -7 -15 -17 -15 -22 0 -7 5 -6 13 1 8
6 16 8 19 5 3 -2 29 24 57 60 49 62 61 83 43 72 -5 -3 -9 1 -9 9 0 10 4 12 12
5 14 -11 38 10 33 28 -2 5 2 11 7 12 18 3 35 22 33 36 -2 7 0 12 3 11 13 -4
40 27 35 40 -3 8 -2 12 3 9 13 -9 44 31 35 46 -4 7 -3 10 1 5 5 -4 17 0 27 10
20 18 25 38 6 27 -8 -4 -10 -3 -5 2 5 5 10 7 12 4 4 -7 45 31 45 42 0 5 -5 6
-12 2 -7 -4 -8 -3 -4 5 4 6 11 9 15 6 13 -7 44 32 35 46 -4 7 -3 10 3 6 13 -8
45 26 41 44 -2 8 2 13 9 12 6 -1 27 17 47 41 37 46 45 63 23 50 -8 -5 -7 -2 2
9 8 10 16 15 19 12 7 -6 42 25 42 37 0 5 -6 6 -12 2 -7 -4 -10 -4 -6 0 3 4 8
6 11 4 7 -4 47 33 47 44 0 5 -6 6 -12 2 -7 -4 -10 -4 -6 0 3 4 10 8 15 8 11
-1 43 29 43 40 0 5 -6 6 -12 2 -9 -5 -8 -2 1 9 8 10 16 15 19 12 7 -6 42 25
42 37 0 5 -6 6 -12 2 -7 -4 -10 -4 -6 0 3 4 10 8 15 8 11 -1 43 29 43 40 0 5
-6 6 -12 2 -9 -5 -9 -3 1 9 7 9 17 15 21 12 10 -6 32 20 28 33 -2 5 0 9 3 8
14 -3 49 38 44 51 -2 8 -1 12 4 9 10 -7 43 28 39 42 -2 5 2 11 7 12 14 2 45
31 45 42 0 5 -6 6 -12 2 -7 -4 -10 -4 -6 0 3 4 8 6 11 4 7 -4 47 33 47 44 0 5
-6 6 -12 2 -9 -5 -8 -2 1 9 8 10 16 15 19 12 7 -6 42 25 42 37 0 5 -6 6 -12 2
-9 -5 -8 -2 1 9 8 10 16 15 19 12 7 -6 42 25 42 37 0 5 -6 6 -12 2 -9 -5 -8
-2 1 9 8 10 16 15 19 12 7 -6 42 25 42 37 0 5 -5 6 -12 2 -7 -4 -8 -3 -4 5 4
6 11 9 15 6 10 -6 43 29 39 41 -2 5 0 9 3 9 11 0 49 37 49 47 0 5 -6 6 -12 2
-9 -5 -8 -2 1 9 8 10 16 15 19 12 7 -6 42 25 42 37 0 5 -6 6 -12 2 -9 -5 -9
-3 1 9 7 9 17 15 21 12 12 -8 51 45 43 59 -3 6 -2 8 2 3 5 -4 17 0 27 10 20
18 25 38 6 27 -7 -4 -10 -4 -6 0 3 4 10 8 15 7 11 0 53 40 53 51 0 5 -5 6 -12
2 -7 -4 -8 -3 -4 5 4 6 11 9 15 6 10 -6 43 29 39 41 -2 5 2 10 7 12 15 5 45
34 45 44 0 5 -6 6 -12 2 -9 -5 -8 -2 1 9 8 10 16 15 19 12 7 -6 42 25 42 37 0
5 -6 6 -12 2 -9 -5 -8 -2 1 9 8 10 16 15 19 12 7 -6 42 25 42 37 0 5 -6 6 -12
2 -9 -5 -8 -2 1 9 8 10 16 15 19 12 7 -6 42 25 42 37 0 5 -6 6 -12 2 -9 -5 -9
-3 1 9 7 9 17 15 21 12 9 -6 42 29 38 41 -2 5 2 10 7 12 15 5 45 34 45 44 0 5
-6 6 -12 2 -9 -5 -8 -2 1 9 8 10 16 15 19 12 7 -6 42 25 42 37 0 5 -6 6 -12 2
-9 -5 -8 -2 1 9 8 10 16 15 19 12 7 -6 42 25 42 37 0 5 -6 6 -12 2 -9 -5 -8
-2 1 9 8 10 16 15 19 12 7 -6 42 25 42 37 0 5 -6 6 -12 2 -9 -5 -9 -3 1 9 7 9
17 15 21 12 9 -6 42 29 38 41 -2 5 2 10 7 12 15 5 45 34 45 44 0 5 -6 6 -12 2
-9 -5 -9 -3 1 9 7 9 17 15 21 12 9 -6 42 29 38 41 -2 5 0 9 3 9 11 0 49 37 49
47 0 5 -6 6 -12 2 -9 -5 -9 -3 1 9 7 9 17 15 21 12 9 -6 42 29 38 41 -2 5 0 9
3 9 11 0 49 37 49 47 0 5 -6 6 -12 2 -9 -5 -9 -3 1 9 7 9 17 15 21 12 9 -6 42
29 38 41 -2 5 0 9 3 9 11 0 49 37 49 47 0 5 -6 6 -12 2 -9 -5 -9 -3 1 9 7 9
17 15 21 12 9 -6 42 29 38 41 -2 5 2 10 7 12 15 5 45 34 45 44 0 5 -6 6 -12 2
-9 -5 -9 -3 1 9 7 9 17 15 21 12 9 -6 42 29 38 41 -2 5 2 10 7 12 15 5 45 34
45 44 0 5 -6 6 -12 2 -9 -5 -9 -3 1 9 7 9 17 15 21 12 9 -6 42 29 38 41 -2 5
0 9 3 9 11 0 49 37 49 47 0 5 -6 6 -12 2 -9 -5 -9 -3 1 9 7 9 17 15 21 12 9
-6 42 29 38 41 -2 5 2 10 7 12 15 5 45 34 45 44 0 5 -6 6 -12 2 -9 -5 -9 -3 1
9 7 9 17 15 21 12 9 -6 42 29 38 41 -2 5 2 10 7 12 15 5 45 34 45 44 0 5 -6 6
-12 2 -9 -5 -9 -3 1 9 7 9 17 15 21 12 9 -6 42 29 38 41 -2 5 0 9 3 9 11 0 49
37 49 47 0 5 -6 6 -12 2 -9 -5 -9 -3 1 9 7 9 17 15 21 12 9 -6 42 29 38 41 -2
5 0 9 3 9 11 0 49 37 49 47 0 5 -6 6 -12 2 -9 -5 -8 -2 1 9 8 10 16 15 19 12
7 -7 42 25 42 38 0 5 -8 3 -17 -4 -16 -13 -17 -12 -4 3 7 10 17 16 21 13 9 -6
42 29 38 41 -2 5 0 9 3 9 11 0 49 37 49 47 0 5 -6 6 -12 2 -9 -5 -8 -2 1 9 8
10 16 15 19 12 7 -6 42 25 42 37 0 5 -6 6 -12 2 -9 -5 -8 -2 1 9 8 10 16 15
19 12 7 -6 42 25 42 37 0 5 -6 6 -12 2 -7 -4 -10 -4 -6 0 3 4 9 6 11 4 7 -4
57 43 57 54 0 5 -5 6 -12 2 -7 -4 -8 -3 -4 5 4 6 11 9 15 6 10 -6 43 29 39 41
-2 5 0 9 3 9 14 0 49 39 47 51 -2 7 0 12 3 11 9 -3 49 34 49 45 0 5 -6 6 -12
2 -9 -5 -8 -2 1 9 8 10 16 15 19 12 7 -6 42 25 42 37 0 5 -6 6 -12 2 -7 -4
-10 -4 -6 0 3 4 10 8 15 8 11 -1 43 29 43 40 0 5 -6 6 -12 2 -9 -5 -8 -2 1 9
8 10 16 15 19 12 7 -6 42 25 42 37 0 5 -6 6 -12 2 -9 -5 -9 -3 1 9 7 9 17 15
21 12 9 -6 32 20 28 31 -2 5 0 9 3 9 11 0 49 37 49 47 0 5 -6 6 -12 2 -7 -4
-10 -4 -6 0 3 4 10 8 15 8 11 -1 43 29 43 40 0 5 -6 6 -12 2 -9 -5 -8 -2 1 9
8 10 16 15 19 12 7 -6 42 25 42 37 0 5 -5 6 -12 2 -7 -4 -8 -3 -4 5 4 6 11 9
15 6 10 -6 43 29 39 41 -2 5 0 9 3 9 13 0 39 29 37 41 -2 7 2 13 7 14 14 2 45
31 45 42 0 5 -6 6 -12 2 -8 -4 -10 -3 -5 2 5 5 12 8 15 7 10 -2 42 28 42 39 0
5 -6 6 -12 2 -9 -5 -8 -2 1 9 8 10 16 15 19 12 7 -7 42 25 42 38 0 5 -8 3 -17
-4 -16 -13 -17 -12 -4 4 8 9 16 15 19 12 7 -6 42 25 42 37 0 5 -6 6 -12 2 -9
-5 -9 -3 1 9 7 9 17 15 21 12 9 -6 32 20 28 31 -2 5 0 9 3 9 11 0 49 37 49 47
0 5 -6 6 -12 2 -7 -4 -10 -4 -6 0 3 4 10 8 15 8 11 -1 43 29 43 40 0 5 -6 6
-12 2 -9 -5 -9 -3 1 9 7 9 17 15 21 12 11 -7 31 20 28 36 -2 7 2 13 7 14 16 1
35 15 35 26 0 6 -6 7 -12 3 -9 -5 -8 -2 1 9 8 10 16 15 19 12 7 -6 42 25 42
37 0 5 -6 6 -12 2 -8 -4 -10 -3 -5 2 5 5 12 9 15 9 13 0 32 16 32 26 0 6 -6 7
-12 3 -9 -5 -8 -2 1 9 8 10 16 15 19 12 7 -6 42 25 42 37 0 5 -6 6 -12 2 -8
-4 -10 -3 -5 2 5 5 12 9 15 9 13 0 32 16 32 26 0 6 -6 7 -12 3 -9 -5 -8 -2 1
9 8 10 16 15 19 12 7 -6 42 25 42 37 0 5 -5 6 -12 2 -7 -5 -8 -3 -4 5 5 7 11
10 14 7 7 -7 42 24 42 37 0 5 -8 3 -17 -4 -16 -13 -17 -12 -4 3 7 10 17 16 21
13 10 -6 32 20 28 33 -2 5 2 11 7 12 15 3 35 21 35 32 0 5 -5 6 -12 2 -7 -4
-8 -3 -4 5 4 6 11 9 15 6 13 -8 44 32 35 47 -4 7 -3 10 1 5 5 -4 17 0 27 10
20 18 25 38 6 27 -7 -4 -8 -3 -4 5 4 6 11 9 16 6 9 -6 32 19 28 31 -2 5 0 9 3
9 16 0 39 30 34 44 -3 8 -3 12 1 8 4 -4 16 0 26 10 20 18 25 38 6 27 -7 -4
-10 -4 -6 0 3 4 8 6 11 4 6 -5 37 23 37 34 0 5 -6 6 -12 2 -8 -5 -8 -1 2 12
22 30 24 30 16 10 -7 -19 -6 -20 14 -1 11 10 18 25 15 32 -2 8 -1 12 4 9 11
-7 32 18 29 35 -2 7 2 13 7 14 16 1 35 15 35 26 0 6 -6 7 -12 3 -8 -4 -10 -3
-5 2 5 5 12 9 15 9 13 0 32 16 32 26 0 6 -5 7 -12 3 -7 -4 -8 -3 -4 5 4 6 11
9 16 6 9 -6 32 19 28 31 -2 5 0 9 3 9 3 0 13 6 22 14 19 15 23 36 5 25 -7 -4
-8 -3 -4 5 4 6 11 9 16 6 12 -8 33 23 24 37 -4 7 -3 10 1 5 5 -4 17 0 27 10
20 18 25 38 6 27 -8 -4 -10 -3 -5 2 5 5 10 7 11 4 4 -7 36 21 36 32 0 5 -6 6
-12 2 -8 -4 -10 -3 -5 2 5 5 10 7 11 4 4 -7 36 21 36 32 0 5 -6 6 -12 2 -8 -4
-10 -3 -5 2 5 5 10 7 11 4 4 -7 36 21 36 32 0 5 -6 6 -12 2 -7 -4 -10 -4 -6 0
3 4 10 8 15 8 12 0 33 19 33 30 0 5 -6 6 -12 2 -8 -4 -10 -3 -5 2 5 5 10 7 11
4 4 -7 36 21 36 32 0 5 -6 6 -12 2 -8 -4 -10 -3 -5 2 5 5 12 8 15 7 10 -2 32
18 32 29 0 5 -5 6 -12 2 -7 -4 -8 -3 -4 5 4 6 11 9 16 6 12 -8 33 23 24 37 -4
7 -4 10 1 6 9 -9 35 9 35 24 0 5 -6 6 -12 2 -8 -4 -10 -3 -5 2 5 5 10 7 11 4
4 -7 36 21 36 32 0 5 -6 6 -12 2 -8 -4 -10 -3 -5 2 5 5 13 9 19 9 6 0 17 9 24
21 14 20 9 22 -143 70 l-158 49 -155 0 c-85 0 -171 -3 -190 -8 -22 -5 -31 -4
-25 2 23 23 325 28 400 7z m-4981 -6560 c-9 -15 -19 -25 -21 -22 -5 5 30 56
35 51 2 -2 -4 -15 -14 -29z"/>
<path d="M6227 10283 c-4 -3 -7 -11 -7 -17 0 -6 5 -5 12 2 6 6 9 14 7 17 -3 3
-9 2 -12 -2z"/>
<path d="M6157 10183 c-4 -3 -7 -11 -7 -17 0 -6 5 -5 12 2 6 6 9 14 7 17 -3 3
-9 2 -12 -2z"/>
<path d="M6057 10043 c-4 -3 -7 -11 -7 -17 0 -6 5 -5 12 2 6 6 9 14 7 17 -3 3
-9 2 -12 -2z"/>
<path d="M6007 9973 c-4 -3 -7 -11 -7 -17 0 -6 5 -5 12 2 6 6 9 14 7 17 -3 3
-9 2 -12 -2z"/>
<path d="M5957 9903 c-4 -3 -7 -11 -7 -17 0 -6 5 -5 12 2 6 6 9 14 7 17 -3 3
-9 2 -12 -2z"/>
<path d="M5687 9523 c-4 -3 -7 -11 -7 -17 0 -6 5 -5 12 2 6 6 9 14 7 17 -3 3
-9 2 -12 -2z"/>
<path d="M5377 9083 c-4 -3 -7 -11 -7 -17 0 -6 5 -5 12 2 6 6 9 14 7 17 -3 3
-9 2 -12 -2z"/>
<path d="M5137 8743 c-4 -3 -7 -11 -7 -17 0 -6 5 -5 12 2 6 6 9 14 7 17 -3 3
-9 2 -12 -2z"/>
<path d="M4897 8403 c-4 -3 -7 -11 -7 -17 0 -6 5 -5 12 2 6 6 9 14 7 17 -3 3
-9 2 -12 -2z"/>
<path d="M4730 8165 c-7 -9 -10 -18 -7 -21 3 -3 10 4 17 15 13 25 8 27 -10 6z"/>
<path d="M4657 8063 c-4 -3 -7 -11 -7 -17 0 -6 5 -5 12 2 6 6 9 14 7 17 -3 3
-9 2 -12 -2z"/>
<path d="M4517 7863 c-4 -3 -7 -11 -7 -17 0 -6 5 -5 12 2 6 6 9 14 7 17 -3 3
-9 2 -12 -2z"/>
<path d="M4350 7625 c-7 -9 -10 -18 -7 -21 3 -3 10 4 17 15 13 25 8 27 -10 6z"/>
<path d="M4277 7523 c-4 -3 -7 -11 -7 -17 0 -6 5 -5 12 2 6 6 9 14 7 17 -3 3
-9 2 -12 -2z"/>
<path d="M4137 7323 c-4 -3 -7 -11 -7 -17 0 -6 5 -5 12 2 6 6 9 14 7 17 -3 3
-9 2 -12 -2z"/>
<path d="M3997 7123 c-4 -3 -7 -11 -7 -17 0 -6 5 -5 12 2 6 6 9 14 7 17 -3 3
-9 2 -12 -2z"/>
<path d="M3857 6923 c-4 -3 -7 -11 -7 -17 0 -6 5 -5 12 2 6 6 9 14 7 17 -3 3
-9 2 -12 -2z"/>
<path d="M3717 6723 c-4 -3 -7 -11 -7 -17 0 -6 5 -5 12 2 6 6 9 14 7 17 -3 3
-9 2 -12 -2z"/>
<path d="M3477 6383 c-4 -3 -7 -11 -7 -17 0 -6 5 -5 12 2 6 6 9 14 7 17 -3 3
-9 2 -12 -2z"/>
<path d="M1735 3841 c-3 -6 -10 -9 -15 -6 -11 7 -42 -43 -35 -56 4 -5 2 -8 -3
-7 -10 3 -25 -16 -165 -219 -87 -126 -97 -153 -16 -40 29 39 97 130 151 200
55 71 97 131 95 134 -3 2 -8 -1 -12 -6z"/>
</g>
</svg>
